<?xml version="1.0" encoding="UTF-8"?>
<svg id="Layer_1" xmlns="http://www.w3.org/2000/svg" version="1.1" viewBox="0 0 500 500">
  <!-- Generator: Adobe Illustrator 29.7.0, SVG Export Plug-In . SVG Version: 2.1.1 Build 138)  -->
  <defs>
    <style>
      .st0 {
        fill: #e7759b;
      }
    </style>
  </defs>
  <path class="st0" d="M443.19,103h48.08c2.57,0,4.18,2.79,2.89,5.01l-163.4,282.28c-1.28,2.21-4.46,2.23-5.76.03l-66.82-112.45c-1.29-2.18-4.44-2.18-5.74,0l-34.31,57.39c-1.74,2.91-6.21,1.68-6.21-1.71v-85.29c0-.6.16-1.18.46-1.7l40.06-67.82c1.29-2.19,4.45-2.19,5.75,0l66.82,112.45c1.3,2.19,4.46,2.18,5.75-.01l109.54-186.51c.6-1.02,1.7-1.65,2.88-1.65ZM105.45,152.59h25.2c1.84,0,3.34,1.5,3.34,3.34v166.6c0,2.48-2.61,4.1-4.83,2.99h0c-.32-.16-.62-.37-.87-.63l-57.96-57.98c-.63-.63-1.48-.98-2.36-.98H8.32c-2.48,0-4.09,2.61-2.99,4.83h0c.16.33.37.63.63.89l124.39,124.37c.63.63,1.48.98,2.36.98h47.52c1.84,0,3.34-1.5,3.34-3.34V106.34c0-1.84-1.5-3.34-3.34-3.34h-74.79c-1.84,0-3.34,1.5-3.34,3.34v42.91c0,1.84,1.5,3.34,3.34,3.34Z"/>
</svg>